<?xml version="1.0" encoding="UTF-8"?>
<svg width="267px" height="37px" viewBox="0 0 267 37" version="1.1" xmlns="http://www.w3.org/2000/svg" xmlns:xlink="http://www.w3.org/1999/xlink">
    <!-- Generator: Sketch 55.1 (78136) - https://sketchapp.com -->
    <title>Group 6</title>
    <desc>Created with Sketch.</desc>
    <g id="Page-1" stroke="none" stroke-width="1" fill="none" fill-rule="evenodd">
        <g id="Artboard" transform="translate(-163.000000, -111.000000)" fill="#000000">
            <g id="amazon" transform="translate(80.000000, 68.000000)">
                <g id="Group-6" transform="translate(83.000000, 43.000000)">
                    <path d="M145.666874,15.3853306 L134.00419,15.3853306 L134.00419,7.29173332 L149.352651,7.29173332 L149.352651,2.13162821e-14 L126.789305,2.13162821e-14 L126.789305,36.5142449 L149.352651,36.5647042 L149.352651,29.6583629 L134.00419,29.6075379 L134.00419,22.3307962 L145.666874,22.3307962 L145.666874,15.3853306 Z M266.400003,2.13162821e-14 L242.426449,2.13162821e-14 L242.426449,7.33293276 L250.956368,7.33293276 L251.016413,36.5647042 L257.808253,36.5647042 L257.748208,7.33293276 L266.400003,7.33293276 L266.400003,2.13162821e-14 Z M204.314083,2.13162821e-14 L204.266632,20.3558728 L185.754784,2.13162821e-14 L184.607877,2.13162821e-14 L184.607877,36.5647042 L191.606014,36.5647042 L191.606014,17.4226264 L210.257754,36.4885445 L211.40185,36.4885445 L211.401498,2.13162821e-14 L204.314083,2.13162821e-14 Z M174.529363,2.13162821e-14 L167.182163,18.9820692 L159.923713,2.13162821e-14 L152.173069,2.13162821e-14 L166.165598,36.5647042 L168.02653,36.5647042 L181.787459,2.13162821e-14 L174.529363,2.13162821e-14 Z M235.920197,15.3853306 L224.257684,15.3853306 L224.257684,7.29173332 L239.606031,7.29173332 L239.606031,2.13162821e-14 L217.042686,2.13162821e-14 L217.042686,36.5142449 L239.606031,36.5647042 L239.606031,29.6583629 L224.257684,29.6075379 L224.257684,22.3307962 L235.920197,22.3307962 L235.920197,15.3853306 Z M107.741732,7.31294084 C113.344271,7.31294084 116.917842,10.7327483 116.917842,18.5885218 C116.917842,26.444673 113.440367,29.2517634 107.838181,29.2517634 L102.815751,29.2517634 L102.815751,7.31294084 L107.741732,7.31294084 Z M95.7647059,2.13162821e-14 L95.7647059,36.5647042 L107.960955,36.5647042 C118.05014,36.5647042 123.968887,31.0801084 123.968887,18.2823521 C123.968887,5.78923453 118.319029,2.13162821e-14 107.871444,2.13162821e-14 L95.7647059,2.13162821e-14 Z" id="Fill-1"></path>
                    <path d="M57.6954101,30.3013804 C57.6954101,28.5183414 56.3575962,27.1167819 54.6618442,27.1268651 C52.9482763,27.1335872 51.6266587,28.5284245 51.6315176,30.3181857 C51.6363765,32.0945026 52.9677119,33.4708542 54.6958564,33.4708542 C56.3737925,33.4708542 57.700269,32.0743363 57.6954101,30.3013804 M54.6569853,36.5647042 C53.0486933,36.5176495 51.6153213,36.0118109 50.4200348,34.8707331 C49.3899505,33.8725001 48.7906877,32.6440349 48.6044303,31.2038234 C48.4181729,29.8274718 48.6109088,28.5099388 49.2636194,27.2881957 C50.165753,25.5975856 51.5505362,24.5842279 53.351564,24.1993872 C54.7703594,23.9069756 56.1551425,24.0498203 57.4557049,24.7119479 C59.1725121,25.5790998 60.2382282,26.995784 60.6593319,28.9300705 C60.9508652,30.3097831 60.829393,31.6659683 60.2447067,32.956613 C59.3684872,34.8774552 57.8865263,36.018533 55.8798055,36.4184984 C55.4748982,36.4924416 55.0602731,36.5142884 54.6569853,36.5647042 Z M32.9320864,24.4489455 L32.9320864,26.9966243 C32.6146391,26.9277227 32.2955721,26.85546 31.9765051,26.7932805 C31.3286533,26.667241 30.6597464,26.5832147 29.9892198,26.6941294 C29.6976865,26.7462258 29.4223495,26.8285716 29.1729266,27.008388 C28.7583015,27.3108828 28.7161911,27.8419293 29.0644115,28.2166868 C29.2474296,28.4049058 29.4757973,28.5326259 29.709024,28.6166522 C30.2013913,28.791427 30.7018568,28.9510771 31.1958437,29.1292129 C31.9133396,29.3913751 32.5498539,29.7913405 33.0503194,30.4164965 C33.5815578,31.0920683 33.7985882,31.8768744 33.7516189,32.7457068 C33.7078889,33.5439571 33.489239,34.2733058 33.0001109,34.9001423 C32.5287987,35.4967294 31.9084807,35.8916532 31.2185185,36.1538154 C30.4151824,36.4462271 29.6021284,36.5537808 28.7631604,36.535295 C27.807579,36.5151287 26.8633351,36.4159776 25.910993,36.2395223 C25.8753612,36.226078 25.8332508,36.2126338 25.7895208,36.2025507 L25.7895208,33.4464865 C26.0972504,33.5271518 26.3887837,33.597734 26.6916544,33.6683161 C27.4836532,33.8430909 28.2853697,33.9372004 29.0870863,33.8666183 C29.459601,33.8330077 29.822398,33.7674672 30.1495631,33.5826092 C30.8038934,33.2296986 30.8719179,32.4768225 30.2823728,32.006275 C30.0005572,31.7777233 29.6555762,31.6567254 29.3219325,31.5424496 C28.7259089,31.3424669 28.1201675,31.1542478 27.5694935,30.8433504 C26.9297399,30.475315 26.3887837,30.0030869 26.0648578,29.3157514 C25.8154349,28.7847049 25.7376927,28.2234089 25.7636067,27.6503492 C25.7895208,26.9277227 25.9806371,26.2555119 26.3952622,25.6673275 C26.9151632,24.9379788 27.6229413,24.514486 28.4408541,24.2808928 C29.1615892,24.0708269 29.8904224,24.0321748 30.6338323,24.0825906 C31.3610459,24.1279648 32.0834006,24.2388796 32.7927983,24.4102934 C32.8365283,24.418696 32.8786387,24.4321402 32.9320864,24.4489455 Z M45.437407,27.7017734 C45.2219963,27.6093444 45.0082052,27.5001101 44.7960337,27.4127227 C43.9084768,27.0917421 43.0014844,26.9657026 42.076676,27.2026569 C40.7453406,27.5438038 39.8561641,28.6529516 39.7881396,30.0763579 C39.7363115,31.0090503 39.9792559,31.8392306 40.6011936,32.5299272 C41.0838432,33.0643347 41.6944434,33.361788 42.3844056,33.4710222 C43.4047721,33.6172281 44.3716908,33.4155648 45.3013581,32.9601421 C45.3321311,32.9450173 45.3710022,32.9265315 45.4017751,32.9114068 C45.4131125,32.9063652 45.4163518,32.9063652 45.437407,32.9063652 C45.4438855,32.9450173 45.4438855,32.9920721 45.4438855,33.0290437 C45.4438855,34.0104714 45.4438855,34.9818159 45.450364,35.9632436 C45.450364,36.0758389 45.4131125,36.1178521 45.3110759,36.1565042 C44.3522553,36.4337912 43.3837169,36.5900802 42.395743,36.5178175 C40.3712062,36.3800143 38.7029879,35.5397509 37.5368548,33.7583923 C37.0056163,32.9332536 36.7189419,32.0022417 36.6233838,31.0090503 C36.5278257,29.8847778 36.6492979,28.7924353 37.0801193,27.7505086 C37.859161,25.9204148 39.2196497,24.7860592 41.0789843,24.2852622 C42.0620993,24.0197389 43.0452144,23.9978921 44.0315687,24.1693058 C44.4704882,24.2482906 44.9077882,24.367608 45.3483274,24.4650785 C45.406634,24.4785228 45.450364,24.5054112 45.450364,24.5843959 C45.4438855,25.6078368 45.4438855,26.616153 45.4438855,27.6362328 C45.4438855,27.6563991 45.437407,27.6748849 45.437407,27.7017734 Z M14.8605856,27.6886653 C14.5739112,27.5760699 14.2985742,27.4449889 14.0216176,27.3508793 C13.1243429,27.0584677 12.2157308,26.954275 11.3087383,27.2550893 C10.1231696,27.6550547 9.42348971,28.5087624 9.23237344,29.7893239 C9.08336753,30.8060427 9.32631194,31.7404156 10.0065563,32.510097 C10.484347,33.0579487 11.1014258,33.3570825 11.7962468,33.4646362 C12.8214722,33.6242863 13.7932498,33.4226231 14.7164386,32.9604782 C14.7601686,32.9403118 14.8071378,32.9151039 14.8605856,32.8915766 C14.8654445,32.9453534 14.8654445,32.9924082 14.8654445,33.0361019 L14.8654445,35.9635797 C14.8703034,36.076175 14.8395304,36.1181882 14.7439723,36.1534793 C13.7819124,36.4341273 12.8052759,36.5904163 11.817302,36.5181536 C9.63890042,36.3635452 7.88808104,35.4207696 6.76081898,33.415901 C6.28302831,32.5655543 6.06599797,31.6210982 6.01902872,30.6346289 C5.97529873,29.5590917 6.14535981,28.5238871 6.59723641,27.547501 C7.34064631,25.9291536 8.57318428,24.8889074 10.2138689,24.3629025 C11.1435361,24.0671298 12.0829212,24.0150334 13.0336436,24.1091429 C13.6183298,24.176364 14.1916786,24.2872788 14.7553097,24.4553315 C14.8330519,24.4788589 14.8654445,24.5107889 14.8654445,24.5998568 L14.8654445,27.6096805 C14.8654445,27.6416105 14.8654445,27.6701795 14.8605856,27.6886653 Z M18.9067437,36.3084239 L18.9067437,24.2859344 L21.8107392,24.2859344 L21.8107392,36.3084239 L18.9067437,36.3084239 Z M15.990763,9.50973348 C15.990763,6.84609833 15.9972415,4.18414371 15.9810452,1.52555014 C15.9810452,0.851658849 16.4491181,0.115588064 17.2621721,0.00971486853 C18.0055819,-0.0759920038 18.6728693,0.413041326 18.8477892,1.17432002 C18.870464,1.29699848 18.8866603,1.423038 18.8866603,1.54571646 L18.8866603,17.4586258 C18.8866603,18.256876 18.3278882,18.9223647 17.612012,18.9946273 C16.8248721,19.0719316 16.1721615,18.5778567 16.0069593,17.7812869 C15.9972415,17.69558 15.990763,17.596429 15.990763,17.5090416 L15.990763,9.50973348 Z M47.9507479,9.49242405 C47.9507479,6.82542785 47.9507479,4.1617927 47.9556068,1.49815755 C47.9556068,0.809141519 48.3799497,0.239442897 49.0180836,0.054584937 C49.8878246,-0.190771992 50.7640441,0.447828233 50.8353078,1.38724277 C50.8417863,1.49815755 50.8450256,1.62083602 50.8450256,1.74015343 C50.8498845,6.95987 50.8498845,12.1846282 50.8498845,17.4043447 C50.8498845,18.1790676 50.4206827,18.7890989 49.7566346,18.9588321 C48.8318263,19.1974669 47.9556068,18.4866041 47.9507479,17.5018153 L47.9507479,9.49242405 Z M55.916895,10.8529786 L55.916895,7.20791577 C55.9217539,6.67518874 56.1290665,6.23657122 56.5679861,5.93743743 C57.0473964,5.60637363 57.568917,5.58116573 58.0726218,5.86853583 C58.5779461,6.15254487 58.8273691,6.61300925 58.832228,7.1911105 C58.8370868,9.62451347 58.832228,12.0478333 58.832228,14.4778752 C58.832228,14.6072757 58.8160317,14.7400374 58.7949765,14.8643964 C58.657308,15.4441781 58.1001555,16.0642926 57.2304145,15.9937104 C56.5922805,15.9449752 56.022171,15.3853597 55.9428091,14.7081074 C55.9266128,14.5971926 55.916895,14.4845973 55.916895,14.3770436 L55.916895,10.8529786 Z M7.9883361,10.8373497 L7.9883361,7.18892582 C7.9883361,6.49990979 8.43373418,5.91004484 9.06538965,5.73695057 C9.99181766,5.47982995 10.8939512,6.17724862 10.8939512,7.17380108 C10.8988101,9.61224562 10.8988101,12.0540512 10.8939512,14.4975373 C10.8939512,15.255455 10.3319398,15.9175826 9.64035808,15.9848037 C8.84997894,16.0721911 8.18593089,15.5881993 8.02396795,14.8033932 C8.00939128,14.6857564 7.99319499,14.5714805 7.99319499,14.4605657 C7.9883361,13.2522669 7.9883361,12.0389265 7.9883361,10.8373497 Z M26.8686799,10.8529786 L26.8686799,14.4845973 C26.8686799,15.2559591 26.30019,15.9231283 25.6134671,15.9853078 C24.6951372,16.0760563 24.0910155,15.4273729 23.9889788,14.7282737 C23.9727825,14.6392058 23.9727825,14.5450963 23.9727825,14.4593894 L23.9727825,7.22472104 C23.9727825,6.31555599 24.6271128,5.65846996 25.5017127,5.68535839 C26.2418833,5.70888577 26.8686799,6.37605495 26.8686799,7.15245839 C26.8719191,8.38092355 26.8686799,9.61611083 26.8686799,10.8529786 Z M42.8427607,10.8529786 L42.8427607,14.4845973 C42.8427607,15.249237 42.3066633,15.9012815 41.6102227,15.9853078 C40.8295613,16.0760563 40.1606544,15.6004672 39.9889737,14.8156611 C39.9646792,14.7198711 39.9533418,14.6022342 39.9533418,14.4929999 C39.9533418,12.0562359 39.9484829,9.62955505 39.9533418,7.1911105 C39.9533418,6.32227809 40.6076721,5.6668726 41.4466401,5.68535839 C42.2094856,5.69544156 42.8427607,6.35924968 42.8427607,7.14405575 C42.8524785,8.38092355 42.8427607,9.61274978 42.8427607,10.8529786 Z M2.90237588,12.9225475 L2.90237588,14.5056039 C2.90237588,15.2752852 2.31768966,15.9256491 1.61153125,15.9945507 C0.69644064,16.0718549 0.0874599873,15.3677142 0.0161962939,14.7022255 C0.00647851758,14.6131576 1.28608235e-12,14.5257702 1.28608235e-12,14.4232581 L1.28608235e-12,11.3815043 C1.28608235e-12,10.6017399 0.474551413,10.0017918 1.20176501,9.85390539 C2.05692933,9.68417217 2.88941884,10.3849519 2.90237588,11.2756312 C2.90561513,11.8335661 2.90237588,12.3780568 2.90237588,12.9225475 Z M31.9656536,12.9077589 L31.9656536,11.3398273 C31.9656536,10.5600628 32.5438613,9.89457414 33.2564982,9.84079728 C34.0792699,9.78029831 34.7319806,10.3180669 34.8372565,11.1381641 C34.8502135,11.2322736 34.8615509,11.3213415 34.8615509,11.4053678 L34.8615509,14.47401 C34.8550724,15.2252055 34.3886192,15.8301952 33.6808411,15.9646373 C32.6993457,16.1478148 31.976991,15.3680503 31.9656536,14.5328284 C31.9607947,13.9967403 31.9656536,13.4505691 31.9656536,12.9077589 Z M63.9201317,12.9077589 L63.9201317,11.2978141 C63.9201317,10.5062859 64.5420694,9.85760255 65.3162523,9.8357557 C66.0920548,9.81390885 66.7722991,10.4121764 66.7982132,11.1969825 C66.8176487,11.9464975 66.8176487,12.6960125 66.8176487,13.4488886 C66.8176487,13.8354097 66.8176487,14.228653 66.7982132,14.6202158 C66.7609617,15.3293982 66.1876129,15.9243047 65.5332826,15.9848037 C64.661922,16.0721911 64.0837143,15.4621598 63.9557636,14.8386843 C63.936328,14.7344916 63.9298495,14.6286184 63.9201317,14.5244258 L63.9201317,12.9077589 Z" id="Combined-Shape"></path>
                </g>
            </g>
        </g>
    </g>
</svg>